<svg xmlns="http://www.w3.org/2000/svg" xmlns:xlink="http://www.w3.org/1999/xlink" width="2000" height="2008.276"><defs><linearGradient id="a"><stop offset="0" stop-color="#070135"/><stop offset="1" stop-color="#612d50"/></linearGradient><linearGradient x1="314.624" y1="547.206" x2="427.377" y2="432.484" id="b" xlink:href="#a" gradientUnits="userSpaceOnUse" gradientTransform="translate(-52)"/></defs><g transform="translate(-3987.602 -6644.883) scale(15.62304)"><rect width="128.016" height="128.546" ry="20.68" x="255.239" y="425.326" fill="url(#b)"/><path d="M320.213 480.665c3.27 0 5.75-.71 7.437-2.133 1.69-1.422 2.533-3.52 2.533-6.294 0-2.737-.844-4.817-2.533-6.24-1.688-1.457-4.167-2.186-7.437-2.186h-11.478v16.853h11.478m.7 34.827c4.168 0 7.294-.87 9.378-2.613 2.12-1.743 3.18-4.374 3.18-7.894 0-3.45-1.042-6.027-3.125-7.734-2.084-1.742-5.228-2.613-9.43-2.613h-12.18v20.852h12.18m19.292-28.64c4.455 1.28 7.904 3.644 10.347 7.093 2.443 3.45 3.664 7.68 3.664 12.694 0 7.68-2.623 13.404-7.868 17.173-5.245 3.768-13.22 5.653-23.927 5.653h-34.436v-79.628h31.15c11.172 0 19.255 1.67 24.25 5.013 5.03 3.344 7.544 8.695 7.544 16.055 0 3.876-.915 7.182-2.748 9.92-1.832 2.702-4.49 4.71-7.975 6.027" style="line-height:100%;-inkscape-font-specification:Sans Bold" font-weight="bold" font-size="109.797" letter-spacing="0" word-spacing="0" text-anchor="middle" fill="#fff" font-family="Sans"/></g></svg>