<svg width="298" height="420" viewBox="0 0 298 420" xmlns="http://www.w3.org/2000/svg"><title>Slice 1</title><g fill="none" fill-rule="evenodd"><path d="M27.383 386.266L.313 82.646h297.45l-27.098 303.57-121.81 33.77-121.472-33.72zm0 0" fill="#E44F26"/><path d="M149.038 394.175l98.427-27.288 23.158-259.416H149.038v286.705zm0 0" fill="#F1662A"/><path d="M149.038 220.08H99.763l-3.404-38.132h52.678v-37.24H55.663l.892 9.992 9.152 102.616h83.33V220.08zm0 0M149.038 316.788l-.163.046-41.472-11.2-2.652-29.697H67.37l5.218 58.467 76.278 21.176.172-.048v-38.744zm0 0" fill="#EBEBEB"/><path d="M27.988.135h18.924V18.83h17.31V.136H83.15v56.618H64.224V37.795h-17.31v18.958H27.988V.135zm0 0M108.032 18.91h-16.66V.135h52.252V18.91h-16.667v37.843h-18.924V18.91zm0 0M151.917.135h19.733l12.137 19.894L195.914.134h19.74v56.618h-18.847V28.69l-13.02 20.13h-.326l-13.027-20.13v28.063h-18.517V.135zm0 0M225.07.135H244v37.903h26.612v18.714H225.07V.135zm0 0" fill="#010101"/><path d="M148.91 220.08v37.236h45.853l-4.322 48.294-41.53 11.21v38.742l76.34-21.158.558-6.29 8.75-98.035.91-10h-86.559zm0 0M148.91 144.71v37.237h89.946l.747-8.37L241.3 154.7l.89-9.99h-93.28zm0 0" fill="#FFF"/></g></svg>