<svg xmlns="http://www.w3.org/2000/svg" height="128.25" width="523.59"><path fill="#131b28" d="M223.9 46.17v-.004l-3.35 11.88 3.35-11.875zM241.14 71.962l-3.694-.022 3.694.022zM240.19 89.703h.004l-22.13.08 22.127-.08zM244.83 71.984l-3.695-.022 3.695.022zM242.13 88.195l3.855-14.702-3.855 14.705v-.002zM323.61 20.49l-7.18 33.76 7.18-33.76zM305.15 20.49l-5.452 25.22 5.452-25.222v.002z"/><path fill="#131b28" d="M322.38 18.97h-15.356c-.852 0-1.698.685-1.88 1.517l-5.452 25.222-5.45 25.22c-.182.834-1.027 1.515-1.88 1.515h-10.868c-10.753 0-9.51-7.437-7.307-17.627l.066-.308.242-1.284c.014-.083.03-.166.045-.242l.49-2.615.527-2.803c.16-.845.403-2.08.56-2.857l2.48-12.11 2.48-12.108c.17-.835-.388-1.52-1.24-1.52h-15.762c-.853 0-1.696.685-1.87 1.518l-3.39 16.08-3.388 16.076c-.003.007-.004.017-.005.024l-.315 1.495c-3.904 17.822-2.868 34.817 18.347 35.35.347.01.615.01.615.01h33.3c.853 0 1.697-.683 1.875-1.518l7.182-33.757 7.18-33.76c.178-.834-.375-1.518-1.227-1.518zM383.64 72.62c.853 0 1.41.685 1.24 1.52l-1.49 7.287M381.9 88.72l1.49-7.294-1.49 7.295zM380.03 90.253l.007-.002c-4.52.038-18.1.14-28.306.14 12.423 0 28.3-.137 28.3-.137zM342.57 63.234c-.013-.798.896-2.173 1.75-2.173l-1.918-.03c-.865 8.69.168 2.204.168 2.204z"/><path fill="#131b28" d="M353.13 90.387c-.098 0-.198 0-.295.002.097-.003.197-.003.295-.003zM383.64 72.62c.853 0 1.41.685 1.24 1.52l-1.49 7.287-.244 1.19M360.4 90.37h-.062.062zM356.63 90.382h-.22.22zM355.48 90.385c-.122 0-.242 0-.36.002.118-.002.238-.002.36-.002zM354.31 90.387h-.317.317zM356.41 90.382l-.93.002.93-.002zM360.34 90.37c-1.243.005-2.483.01-3.705.013 1.222-.002 2.464-.007 3.705-.013zM380.04 90.25c-3.31.027-11.49.088-19.645.12 8.152-.03 16.332-.093 19.645-.12zM381.9 88.722l1.25-6.106-1.25 6.11v-.004zM355.12 90.387h-.81.81zM352.83 90.39h-1.096 1.096zM353.99 90.387h-.864.864zM129.36 63.417l2.385-10.574-2.727 12.087-2.617 12.312 2.295-10.793c.177-.836.477-2.2.665-3.033zM157.91 18.793h-16.864c-.853 0-1.704.68-1.895 1.51l-1.598 7.06-1.6 7.06c-.187.83.357 1.51 1.21 1.51h16.995c.852 0 1.7-.68 1.882-1.513l1.544-7.058 1.546-7.053v-.003c.182-.832-.366-1.514-1.22-1.514zM154.24 42.272v-.002l-4.946 22.883 4.946-22.88zM105.25 118.09s8.5.11 13.905.11c-4.105 0-10.885-.076-13.912-.112l.008.002zM134.13 42.27l-2.388 10.573 2.388-10.574z"/><path fill="#131b28" d="M153.02 40.756h-16.997c-.852 0-1.704.68-1.892 1.514l-2.387 10.574-2.385 10.574c-.188.832-.488 2.197-.665 3.032L126.4 77.243l-2.293 10.793c-.18.832-.545 2.178-.818 2.986 0 0-3.176 9.448-8.515 9.34-.227-.004-.448-.006-.666-.012-2.588-.05-4.62-.086-4.62-.086h-.004c-.85-.012-1.707.652-1.906 1.48l-1.762 7.41-1.76 7.407c-.198.83.336 1.512 1.183 1.527 3.03.036 9.81.112 13.913.112 13.334 0 20.363-7.39 24.87-28.648l5.273-24.4 4.946-22.882c.18-.832-.37-1.514-1.223-1.514zM394.47 89.525c-.852 0-1.405-.684-1.226-1.52l12.786-59.89M412.24 88.004l5.17-25.562-5.17 25.562z"/><path fill="#131b28" d="M393.43 88.766c-.104-.417-.043-1.44.138-2.275l6.068-28.427-6.393 29.944c-.18.835.374 1.518 1.226 1.518h1.552c-.854 0-2.49-.342-2.592-.76zM411.23 89.183c-.464.188-1.543.342-2.396.342h1.552c.853 0 1.69-.684 1.858-1.52l.308-1.52c-.17.835-.857 2.51-1.322 2.698zM414.83 75.223l2.283-11.282c0 .008-.002.018-.004.023l-2.28 11.26zM465.28 32.128l.704 2.91c.194.833-.344 1.51-1.195 1.51M412.55 86.486l2.277-11.262-2.277 11.262zM464.58 29.147l.697 2.98-.697-2.98zM417.11 63.942c.17-.835.45-2.188.627-3.015l2.438-11.42-2.76 12.936-.305 1.5zM406.24 27.135l-.53 2.498-6.07 28.43 6.394-29.946.206-.982z"/><path fill="#131b28" d="M465.98 35.038l-.704-2.91-.697-2.98-.354-1.51c-1.38-5.364-5.434-8.46-14.233-8.46l-13.7-.014-12.617-.015H409.48c-.853 0-1.697.68-1.872 1.515s-.63 2.967-.63 2.967l-.74 3.503-.206.982-6.393 29.946-6.07 28.428c-.18.836-.24 1.858-.137 2.276.103.417 1.74.76 2.592.76h12.808c.853 0 1.932-.155 2.396-.343.464-.188 1.15-1.862 1.32-2.697l2.278-11.262 2.28-11.26c0-.005 0-.015.003-.022l.305-1.5 2.76-12.936 2.44-11.426c.18-.83 1.02-1.51 1.87-1.512l40.3-.02c.852 0 1.39-.678 1.196-1.51z"/><path fill="#131b28" d="M517.86 8.724c-.853.006-2.248.012-3.102.012h-12.9c-.852 0-1.945.576-2.426 1.28L470.91 51.803c-.483.706-1.032.6-1.22-.23l-2.1-9.206c-.19-.832-1.043-1.51-1.896-1.51h-18.337c-.853 0-1.358.668-1.125 1.488l8.217 28.784c.233.82.25 2.167.04 2.993l-3.583 13.93c-.212.828.313 1.504 1.166 1.504h18.123c.852 0 1.724-.676 1.935-1.503l3.584-13.93c.21-.827.804-2.062 1.318-2.743l46.306-61.458c.514-.68.236-1.236-.616-1.23l-4.86.032zM372.18 44.774v-.017c-.108.925-.962 1.604-1.814 1.604h-23.248c-.803 0-1.212-.546-1.094-1.22.007-.02.01-.036.022-.054 0 0-.008.003-.014.008.005-.027.005-.052.012-.08l.107-.394c2.22-5.903 6.744-9.778 15.244-9.778 9.57 0 11.437 4.675 10.787 9.932zm-6.82-26.834c-29.84 0-36.912 18.113-40.88 36.394-3.966 18.633-3.625 36.055 27.254 36.055h1.096c.098-.003.198-.003.296-.003h1.991c.12-.002.24-.002.362-.002l.93-.002h.218c1.222-.002 2.462-.008 3.705-.012h.062c8.155-.03 16.334-.092 19.647-.12.847-.012 1.676-.695 1.85-1.523l1.25-6.11.243-1.19 1.492-7.287c.17-.835-.387-1.52-1.24-1.52h-27.76c-11.042 0-14.32-2.933-13.113-11.56h44.377l-.003.006c.01 0 .02-.005.03-.005.706-.01 1.358-.497 1.617-1.144.048-.124.09-.253.107-.388l-.004.005c6.59-24.854 4.7-41.592-23.528-41.592zM224.32 44.68l-.42 1.486v.005l-3.352 11.876-3.35 11.873c-.23.82-1.118 1.49-1.972 1.49H197.49c-13.453 0-16.73-10.52-13.453-26.041 3.275-15.876 9.697-25.744 22.938-26.742 18.094-1.365 21.714 11.36 17.345 26.05zm12.163 25.817s8.362-20.303 10.26-32.03c2.59-15.7-5.27-38.467-35.63-38.467-30.186 0-43.294 21.737-48.296 45.367-5 23.8 1.552 44.675 31.567 44.504l23.68-.087 22.13-.08c.852-.008 1.724-.684 1.94-1.507l3.856-14.705c.215-.824-.306-1.503-1.16-1.508l-3.694-.022-3.693-.022c-.726-.005-1.14-.473-1.053-1.096.016-.112.042-.227.09-.347z"/><path fill="#131b28" d="M385.92 56.908c0 .562-.455 1.018-1.018 1.018-.562 0-1.018-.456-1.018-1.018s.456-1.016 1.018-1.016c.563 0 1.018.454 1.018 1.016z"/><path fill="#0868ac" d="M5.979 30.51c-8.337 11.98-7.3 27.565-.932 40.294.152.305.31.605.467.906.1.19.194.386.297.573.06.113.125.223.186.33.11.203.22.396.332.593.198.35.4.696.608 1.043.115.19.228.38.347.57.23.37.465.737.705 1.104.1.156.198.312.3.463.333.496.672.99 1.022 1.475.01.013.018.027.03.04.054.077.115.153.172.23.302.418.615.83.93 1.24l.35.446c.283.354.57.705.862 1.057.11.132.218.263.328.393.392.46.79.92 1.2 1.37l.023.024c.017.02.032.03.047.05.398.436.805.86 1.218 1.285.128.132.26.264.39.393.32.322.645.64.974.955.133.127.264.256.397.378.44.413.882.818 1.333 1.214l.02.017c.078.068.157.132.233.197.397.346.802.688 1.21 1.024.166.135.335.267.502.4.333.267.67.53 1.01.79l.54.41c.374.275.75.546 1.132.813.14.1.273.197.412.293.04.026.075.053.114.08.36.25.73.488 1.1.728.158.105.316.215.476.317.566.36 1.14.713 1.722 1.055l.476.268c.427.247.857.49 1.293.725.235.127.477.247.715.37.308.16.613.324.925.48.07.034.145.068.214.103.127.06.254.12.38.183.484.23.972.458 1.466.677l.31.14c.565.246 1.135.483 1.71.71.138.056.277.11.416.164.532.206 1.072.408 1.614.6.068.023.134.045.203.07.593.207 1.194.4 1.798.588.144.04.29.088.434.13.616.185 1.224.407 1.858.524 40.31 7.35 52.02-24.224 52.02-24.224-9.835 12.812-27.29 16.19-43.83 12.43-.626-.143-1.234-.338-1.845-.52-.155-.045-.308-.09-.46-.138-.597-.183-1.19-.376-1.778-.578-.08-.03-.162-.06-.244-.088-.527-.186-1.05-.38-1.567-.58-.147-.06-.293-.116-.44-.175-.57-.225-1.134-.46-1.692-.704l-.338-.15c-.48-.216-.954-.436-1.427-.663l-.413-.197c-.37-.18-.738-.374-1.104-.562-.245-.13-.494-.25-.737-.386-.447-.24-.886-.488-1.323-.742-.148-.083-.298-.163-.447-.25-.58-.34-1.155-.695-1.723-1.054-.157-.1-.31-.207-.465-.31-.412-.266-.822-.537-1.226-.815-.134-.09-.263-.188-.395-.278-.39-.277-.776-.556-1.16-.84-.173-.128-.344-.258-.513-.387-.35-.27-.7-.54-1.046-.818l-.467-.374c-.438-.36-.873-.724-1.3-1.098-.046-.04-.095-.078-.144-.12-.464-.407-.92-.824-1.37-1.244l-.385-.37c-.333-.32-.66-.64-.983-.966-.13-.13-.26-.256-.386-.386-.41-.42-.812-.844-1.206-1.276l-.06-.064c-.418-.456-.825-.923-1.225-1.394l-.322-.38c-.297-.36-.593-.723-.88-1.09-.11-.132-.217-.267-.324-.403-.347-.45-.686-.9-1.018-1.356-9.182-12.525-12.48-29.8-5.142-43.987"/><path fill="#0868ac" d="M31.852 20.416c-6.028 8.674-5.7 20.286-1 29.46.79 1.538 1.676 3.03 2.667 4.45.903 1.295 1.904 2.835 3.102 3.875.435.48.89.946 1.353 1.405.117.12.237.234.356.352.452.437.91.866 1.383 1.284.02.015.037.035.056.05.004.005.01.007.013.012.523.46 1.064.9 1.614 1.336.122.092.242.19.366.285.55.423 1.112.838 1.688 1.233l.05.037c.254.176.513.34.77.508.123.08.24.167.365.242.41.264.828.52 1.25.767.06.035.12.067.178.1.365.21.735.42 1.106.62.13.072.26.136.392.204.257.134.513.27.774.4.04.02.08.037.117.054.53.26 1.067.513 1.614.752.117.052.238.098.357.147.437.185.88.366 1.323.537.188.07.378.14.566.207.403.15.807.287 1.215.424.184.058.365.12.55.175.58.18 1.15.407 1.756.507C86.957 74.993 94.142 51.03 94.142 51.03c-6.477 9.33-19.02 13.78-32.405 10.306-.595-.156-1.18-.327-1.763-.51-.178-.054-.353-.112-.53-.17-.414-.135-.825-.277-1.233-.426-.185-.068-.372-.136-.555-.207-.447-.17-.89-.35-1.327-.535-.12-.05-.24-.097-.358-.15-.55-.24-1.09-.492-1.623-.756-.275-.134-.545-.275-.815-.415l-.47-.24c-.346-.19-.69-.385-1.03-.582-.08-.047-.165-.09-.246-.14-.422-.246-.837-.5-1.248-.76-.127-.082-.25-.17-.376-.253-.27-.176-.542-.354-.808-.534-.574-.396-1.132-.81-1.682-1.23l-.38-.3c-5.858-4.625-10.502-10.946-12.71-18.114-2.314-7.434-1.815-15.78 2.194-22.55"/><path fill="#0868ac" d="M53.613 12.875c-3.554 5.23-3.903 11.724-1.437 17.5 2.6 6.13 7.93 10.94 14.147 13.22.257.095.513.18.773.27.113.033.226.072.34.106.367.116.73.25 1.11.32C85.73 47.61 90.39 35.473 91.63 33.687c-4.083 5.88-10.945 7.29-19.364 5.246-.665-.162-1.396-.402-2.037-.63-.82-.292-1.63-.626-2.418-1.004-1.495-.718-2.92-1.59-4.24-2.588-7.535-5.716-12.215-16.62-7.3-25.502M247.16 114.73l-4.954 11.282h-5.468l.448-10.25-4.026 10.25h-5.296l-.14-11.282.586-2.786h3.75l-.723 11.143 4.163-11.143h5.228l-.378 11.282 4.128-11.282h3.267l-.585 2.786zM255.79 118.07c.482-2.202.344-2.615-.79-2.615h-1.72l-1.102 5.16-1.686 5.4h-3.198l2.613-12.245.38-1.79h2.924l.38.826s1.685-.996 3.334-.996c3.51 0 3.235 2.646 2.477 6.26h-3.61zM266.18 110.19c-1.41 0-2.304-.413-1.96-2.13.378-1.723 1.48-2.135 2.854-2.135 1.378 0 2.305.412 1.927 2.134-.343 1.683-1.443 2.13-2.82 2.13zm-1.512 15.823H261.5l.62-5.503 1.102-5.09-2.2-.484.618-2.99h6.018l-2.99 14.067zM278.39 114.93l-3.955.483-1.137 5.367c-.31 1.48-.31 1.892 1 1.892h2.647l-.55 2.82s-2.407.722-3.44.722c-4.06 0-4.026-2.236-3.302-5.574l1.1-5.26-2.2-.482.652-2.993h2.306l1.31-3.545h3.13l-.76 3.545h3.853l-.653 3.025zM286.61 115.11c-1.857 0-2.82.964-3.198 2.683l5.296-.447c.24-1.17 0-2.236-2.098-2.236zm-3.713 5.227c-.243 1.72.41 2.305 2.612 2.305h5.536l-.55 2.615s-3.336.927-5.812.927c-6.158 0-6.227-3.47-5.435-7.187.79-3.648 2.2-7.256 8.15-7.256 5.746 0 6.02 3.473 4.61 8.597h-9.114zM304.63 126.01h-3.163l.62-5.503 2.235-10.457-2.203-.515.653-2.993h6.02l-4.163 19.468zM316.06 115.11c-1.86 0-2.82.964-3.2 2.683l5.297-.447c.24-1.17 0-2.236-2.097-2.236zm-3.716 5.227c-.24 1.72.414 2.305 2.614 2.305h5.538l-.55 2.615s-3.338.927-5.815.927c-6.156 0-6.223-3.47-5.432-7.187.792-3.648 2.202-7.256 8.152-7.256 5.744 0 6.02 3.473 4.61 8.597h-9.116zM335.97 115.28s-4.025.034-5.125.034c-2.34 0-2.58.72-2.75 1.477l-.14.69 7.43.552s.034 2.373-.276 3.713c-.447 2.236-2.752 4.504-6.913 4.504-2.066 0-5.402-.79-5.402-.79l.585-2.717h5.125c2.27 0 2.58-.62 2.72-1.237l.17-.894-7.292-.552s-.274-1.823.103-3.645c.552-2.478 2.82-4.61 6.982-4.61 2.065 0 5.4.755 5.4.755l-.618 2.72zM349.8 115.28s-4.023.034-5.125.034c-2.338 0-2.58.72-2.75 1.477l-.14.69 7.43.552s.036 2.373-.274 3.713c-.446 2.236-2.75 4.504-6.914 4.504-2.063 0-5.4-.79-5.4-.79l.585-2.717h5.126c2.27 0 2.58-.62 2.72-1.237l.17-.894-7.293-.552s-.274-1.823.103-3.645c.552-2.478 2.82-4.61 6.983-4.61 2.062 0 5.4.755 5.4.755l-.62 2.72zM354.13 128.25h-2.75l.102-2.065c-.998-.066-1.513-.79-1.273-1.995.378-1.72 1.444-2.13 2.854-2.13 1.376 0 2.303.41 1.927 2.13l-.86 4.06zM372.53 115.42c-2.063 0-2.784 1.238-3.267 3.508-.482 2.27-.344 3.61 1.72 3.61h2.854l1.584-7.118h-2.89zm4.713 8.77l-.38 1.823-2.887-.034-.413-.894s-2.547 1.098-4.264 1.098c-4.406 0-4.612-3.61-3.82-7.256.79-3.716 2.51-7.224 6.88-7.224 1.582 0 3.714.79 3.714.79l1.754-5.95h3.165l-3.75 17.645zM388.63 115.28c-2.682 0-3.544 1.51-4.025 3.713-.446 2.237-.24 3.75 2.407 3.75 2.753 0 3.58-1.48 4.06-3.75.483-2.133.344-3.713-2.442-3.713zm-2.338 10.938c-5.676 0-6.124-3.542-5.367-7.224.792-3.68 2.787-7.188 8.463-7.188 5.64 0 6.157 3.51 5.364 7.188-.79 3.75-2.786 7.224-8.46 7.224zM418.49 126.01l.62-5.435.31-1.547c.447-2.063.722-3.577-1.446-3.577h-1.685c.07 1.068-.14 2.27-.414 3.543l-1.478 7.017h-3.2l.62-5.435.308-1.547c.448-2.063.722-3.577-1.443-3.577h-1.377l-2.27 10.56h-3.682l2.994-14.067h2.89l.446.86s1.96-1.033 3.543-1.033c1.204 0 2.1.55 2.41 1.237.686-.378 2.648-1.237 4.06-1.237 4.398 0 4.263 3.576 3.47 7.224l-1.478 7.016h-3.2zM433.11 115.28c-2.684 0-3.544 1.51-4.025 3.713-.446 2.237-.24 3.75 2.408 3.75 2.75 0 3.58-1.48 4.06-3.75.48-2.133.343-3.713-2.443-3.713zm-2.34 10.938c-5.676 0-6.122-3.542-5.365-7.224.79-3.68 2.786-7.188 8.462-7.188 5.642 0 6.157 3.51 5.365 7.188-.79 3.75-2.786 7.224-8.46 7.224zM448.79 118.07c.48-2.202.344-2.615-.79-2.615h-1.72l-1.102 5.16-1.686 5.4h-3.198l2.613-12.245.38-1.79h2.924l.378.826s1.686-.996 3.338-.996c3.508 0 3.232 2.646 2.475 6.26h-3.61zM461.11 115.11c-1.855 0-2.82.964-3.197 2.683l5.294-.447c.243-1.17 0-2.236-2.097-2.236zm-3.715 5.227c-.24 1.72.413 2.305 2.614 2.305h5.537l-.55 2.615s-3.337.927-5.812.927c-6.157 0-6.226-3.47-5.437-7.187.792-3.648 2.203-7.256 8.153-7.256 5.744 0 6.02 3.473 4.61 8.597h-9.115zM469.6 126.22c-1.445 0-2.338-.413-1.96-2.097.343-1.724 1.41-2.134 2.856-2.134 1.34 0 2.268.41 1.926 2.133-.38 1.65-1.48 2.097-2.822 2.097z"/></svg>