<svg xmlns="http://www.w3.org/2000/svg" width="295" height="296.94" viewBox="-21 -56.5 295 296.94"><path fill="#BE6E94" d="M259 143c-2.717 6.48-6.312 11.952-14.492 12.416 4.672-4.273 9.553-8.32 9.34-15.375 1.668.592 3.03 2.82 5.152.96v2z"/><path fill="#B86C91" d="M191.968 81.09c-.937 3.204-3.49 3.056-6.038 2.908-2.975-.17-4.19.537-4.338 4.176-.11 2.668-.018 7.013-4.537 7.81.982-3.485 1.73-7.06 3-10.436 2.205-5.85 7.45-4.26 11.913-4.457z"/><path fill="#AD6E8E" d="M160.043 90.036c-4.585.23-9.55-1.215-13.2 3.175-.327.393-.765-.716-.878-1.316 2.947-3.427 8.785-4.198 14.078-1.858z"/><path fill="#A06E89" d="M83.026 88.803c4.963-1.352 9.93-1.266 14.904-.054-4.967.47-9.935.45-14.904.053z"/><path fill="#B86C91" d="M194.657 89.88c-1.33-2.624-.438-5.402-.564-8.11 2.235.205 2.77 1.382 2.04 3.406-.556 1.545-.988 3.135-1.476 4.704z"/><path fill="#A3748B" d="M162.688 36.94c-1.117-3.276-1.088-6.552-.01-9.83.556 3.277.588 6.552.01 9.83z"/><path fill="#CC6598" d="M235.745 113.29c-10.84-2.81-21.708-2.337-32.136 1.96-3.284 1.354-4.76.924-6.42-2.305-3.837-7.453-4.665-15.05-2.533-23.065-.73-2.666 1.51-5.538-.563-8.11-.542-.75-1.295-.838-2.126-.68-1.786 1.376-3.896 1.575-6.038 1.666-3.154.133-4.99 1.146-5.26 4.912-.21 2.934-1.1 6.12-3.615 8.315-4.64 8.265-8.603 16.934-14.356 24.95-4.86-8.29-5.174-16.452-2.51-24.874.648-2.055 1.687-4.057-.146-6.023-4.926-1.144-9.66-.848-14.078 1.857-7.275 20.19-16.498 39.488-26.295 58.552-1.2-3.002-.824-5.777-.162-8.49 1.73-7.088 3.578-14.146 5.362-21.223.86-3.41.564-7.533-3.458-7.127-5.6.565-4.213-2.596-4.314-5.398-.3-8.282-5.13-11.714-12.968-9.042-6.518 2.224-11.346 6.826-15.826 11.813-1.34 1.49-2.636 2.97-4.428 3.954-6.993 3.846-13.98 7.7-20.943 11.604-1.556.873-2.708 1.32-4.295-.28-7.644-7.7-16.9-13.48-25.018-20.605C25.172 98.24 18.1 90.02 19.946 77.41c1.244-8.5 5.5-15.34 11.343-21.154 20.478-20.377 45.314-32.96 73.34-38.976 11.706-2.513 23.806-3.09 35.257 2.216 6.385 2.957 9.73 7.803 9.176 15.034-.852 11.06-7.02 19.206-14.817 26.242-13.582 12.26-29.868 18.46-47.935 19.816-8.102.608-15.906-1.08-22.33-6.69-1.058-.924-1.944-2.934-3.555-1.603-1.34 1.106-.125 2.757.433 4.113.852 2.068 2.423 3.564 4.037 5.004 5.165 4.603 11.348 6.742 18.132 7.39 4.966-.562 9.935-.44 14.904-.054 9.31-.965 18.435-2.886 26.94-6.79 19.64-9.016 33.675-22.906 37.818-45.02-.336-3.276-.318-6.552-.012-9.828-1.664-12.358-9.973-18.86-20.69-22.92C137.153 2.36 132.005 1.37 127 0h-19c-6.49 1.125-13.18.892-19.518 3.066-26.99 9.26-52.288 21.313-72.367 42.43C8.305 53.71 1.98 62.578 0 74v10c1.34 6.89 4.78 12.642 9.492 17.74 6.587 7.127 13.894 13.394 21.985 18.752 4.582 3.035 8.95 6.375 13.47 9.497 2.766 1.91 2.795 3.232-.307 4.867-7.23 3.81-14.188 8.123-20.498 13.312-6.297 5.178-12.422 10.587-15.24 18.72C4.195 180.457 9.56 191.692 22 194h11c11.513-.915 20.282-6.682 27.247-15.535 9.112-11.583 10.986-24.78 7.857-38.76-.868-3.876-.24-6.07 3.333-7.475 1.76-.69 3.165-2.304 5.312-2.394.216 2.505-.986 4.563-.487 6.74.626 5.616.492 11.24.102 16.87.143 4.66 2.08 8.744 4.372 12.61 4.068 6.86 13.308 7.17 17.923.684 2.986-4.198 5.132-8.853 7.304-14.332-.51 3.862.058 6.942 1.186 9.88 2.3 5.98 7.31 7.336 12.287 3.38 2.912-2.315 5.074-5.272 6.844-8.51 5.35-9.787 10.737-19.546 15.106-29.84 1.645-3.87 3.275-7.79 5.502-12.718 1.094 5.37 2.264 9.428 4.368 12.99 2.23 3.77 1.558 6.518-.946 9.924-4.244 5.777-9.97 10.312-13.633 16.502-3.412 5.77-1.234 10.027 5.457 10.114 9.997.13 18.528-3.573 25.03-11.35 1.603-1.917 2.785-4.163 2.6-6.84-.638-3.19-.555-6.394-.16-9.604.238-2.8-2.23-5.635-.544-8.253 4.348-6.75 8.072-13.875 12.297-21.107 1.875 3.498 1.606 7.142 4.012 9.695 2.308 1.76 4.99 3.405 2.046 6.75-2.105 1.877-4.17 3.813-6.06 5.92-4.186 4.67-7.218 9.986-8.25 16.234-1.018 6.146 2.864 10.746 8.388 10.194 14.61-1.457 24.73-13.844 23.154-28.494-.232-2.155.104-3.51 2.356-4.144 10.263-2.88 20.442-2.43 30.43 1.042 7.903 2.75 12.806 8.62 15.622 16.355 1.89 1.35 3.698 3.647 5.944.465v-5c-3.393-12.025-11.307-19.603-23.255-22.7zm-199.632 66.5c-3.64 1.3-7.717 2.528-10.818-.53-3.264-3.22-1.8-7.523-.587-11.215 1.69-5.136 5.084-9.354 9.15-12.81 5.55-4.725 11.473-9 17.71-12.798 4.842-2.948 5.145-2.74 5.535 3.086.077 1.158.134 2.318.172 2.98.138 13.985-8.628 26.806-21.162 31.286zm72.022-62.243c-2.985 10.905-7.123 21.41-11.758 31.717-.61 1.356-1.384 2.65-2.185 3.91-.616.967-1.288 2.24-2.58 2.08-1.525-.187-1.983-1.783-2.268-2.978-.614-2.57-.89-5.224-1.174-7.032.682-12.295 4.524-22.53 11.702-31.5.104-.13.2-.27.32-.382 2.336-2.098 5.046-5.35 7.994-3.807 3.235 1.693.666 5.375-.05 7.992zm36.998 38.476l11.89-13.623c-.42 7.436-5.404 11.162-11.89 13.623zm36.8-8.27c.495-7.476 4.56-12.622 9.52-17.645 3.026 7.865-.818 14.968-9.52 17.646z"/><path fill="#B06B8B" d="M77.237 153.918c-1.348-5.953-.777-11.904.025-17.855 1.163 5.953 1.225 11.905-.025 17.855z"/><path fill="#B27495" d="M188.812 123.943c.01-2.985-2.543-5.062-2.828-7.942 3.756 1.646 5.47 4.02 2.828 7.943z"/><path fill="#AA6A87" d="M168.758 136.034c.578 3.3.725 6.602.057 9.91-1.333-3.298-1.256-6.6-.057-9.91z"/></svg>